<svg xmlns="http://www.w3.org/2000/svg" width="1672.828" height="529.328" viewBox="0 0 1672.828 529.32797"><path fill="#fff" d="M350.627 58.031c0 105.382-85.432 190.814-190.813 190.814-105.37 0-190.792-85.432-190.792-190.814 0-105.38 85.421-190.802 190.792-190.802 105.381 0 190.813 85.421 190.813 190.802" style="stroke-width:5.17895" transform="translate(164.177 211.97)"/><path fill="#003668" d="M263.008 53.28c-31.783-21.61-72.508-12.794-93.896 19.717-17.854 27.153-44.817 30.524-55.256 30.524-34.014 0-57.297-23.934-64.186-48.693h-.032c-.06-.245-.087-.45-.19-.695a8 8 0 0 0-.206-.836c-2.698-10.336-3.377-15.276-3.377-26.252 0-59.219 60.739-125.153 148.25-125.153 89.608 0 140.896 68.225 154.098 106.137-.217-.668-.429-1.34-.673-2.025-25.422-74.136-95.747-127.454-178.525-127.454-104.177 0-188.671 84.461-188.671 188.682 0 93.14 67.177 172.88 160.361 172.88 74.327 0 124.28-41.68 147.203-99.108 12.556-31.414 3.67-68.328-24.9-87.723" style="stroke-width:5.42844" transform="translate(162.753 205.868)scale(.95404)"/><path fill="#e6002d" d="M349.397 11.697C338.367-25.276 286.71-98.11 194.117-98.11c-87.512 0-148.25 65.934-148.25 125.153 0 10.976.672 15.916 3.376 26.257-1.135-4.527-1.748-9.06-1.748-13.473 0-61.667 61.77-104.4 125.234-104.4 85.932 0 155.584 69.652 155.584 155.568 0 67.356-38.764 125.652-95.084 153.669l.016.043c72.6-26.295 124.442-95.817 124.442-177.483 0-19.325-2.6-36.354-8.29-55.527" style="stroke-width:5.42844" transform="translate(162.753 205.868)scale(.95404)"/><path fill="#595757" d="M581.472-32.255h21.601V148.64h-21.601V63.695h-20.768v83.91h-20.98V-32.049h20.98v74.975h20.768zM438.999-1.311v-19.732h88.472V-1.31h-36.548l40.494 121.079-19.105 5.82-28.246-86.814-28.453 88.27-19.934-6.023L476.588-1.311zM766.313 63.697V24.445h-33.648V5.128h33.648v-37.382h22.425v95.95zm-14.952 46.315c0-6.784-2.496-12.637-7.478-17.551q-7.479-7.371-17.655-7.37c-6.784 0-12.637 2.455-17.551 7.37q-7.371 7.373-7.37 17.551c0 6.784 2.455 12.595 7.37 17.443 4.914 4.847 10.767 7.271 17.551 7.271q10.175 0 17.655-7.271c4.982-4.848 7.478-10.659 7.478-17.443m22.016.207c0 6.09-1.253 11.803-3.739 17.132q-3.745 7.997-9.97 14.02c-4.293 4.013-9.316 7.198-15.06 9.555q-8.624 3.526-18.173 3.527-9.553 0-18.276-3.527-8.725-3.535-15.16-9.555c-4.158-4.014-7.478-8.69-9.969-14.02-2.496-5.329-3.739-11.041-3.739-17.132 0-6.09 1.243-11.839 3.74-17.24 2.49-5.397 5.81-10.105 9.969-14.124q6.433-6.02 15.159-9.55c5.816-2.35 11.906-3.537 18.276-3.537 6.365 0 12.425 1.186 18.173 3.537 5.744 2.352 10.767 5.537 15.06 9.55q6.225 6.03 9.97 14.123c2.486 5.402 3.74 11.15 3.74 17.241M629.65-7.752v-19.312h103.843v19.312h-44.233l46.108 56.285-15.786 12.88-36.967-46.108-36.765 49.22-16.402-13.289 45.896-58.988ZM955.723-32.255h22.43v95.95h-22.43V41.058h-29.701V22.574h29.7V5.96h-29.7v-18.484h29.7zm-6.438 142.265c0-6.784-2.49-12.631-7.478-17.551-4.982-4.91-10.87-7.37-17.65-7.37-6.79 0-12.642 2.46-17.551 7.37-4.92 4.92-7.375 10.767-7.375 17.551 0 6.785 2.455 12.6 7.375 17.443q7.365 7.272 17.551 7.271c6.78 0 12.668-2.423 17.65-7.27q7.48-7.266 7.478-17.444m22.016.208c0 6.095-1.248 11.802-3.744 17.131-2.486 5.33-5.811 10.006-9.965 14.025-4.298 4.014-9.317 7.194-15.06 9.55-5.743 2.351-11.803 3.532-18.173 3.532s-12.46-1.18-18.271-3.532c-5.821-2.356-10.876-5.536-15.164-9.55q-6.232-6.03-9.97-14.025c-2.49-5.329-3.739-11.036-3.739-17.131 0-6.09 1.248-11.84 3.74-17.236q3.736-8.102 9.969-14.128 6.432-6.015 15.164-9.55c5.81-2.351 11.9-3.532 18.271-3.532 6.37 0 12.43 1.18 18.173 3.532q8.614 3.535 15.06 9.55c4.154 4.019 7.479 8.726 9.965 14.128 2.496 5.396 3.744 11.145 3.744 17.236M910.448 58.92h-22.435V-7.127h-65.208v-19.939h87.643zM1149.7-32.254h21.601v180.896H1149.7zm-36.968.202h20.975v179.653h-20.975V54.14h-23.47V33.788h23.47zM1007.227-1.31V-21.04h88.472V-1.31h-36.548l40.494 121.079-19.105 5.816-28.246-86.81-28.453 88.265-19.934-6.023L1044.821-1.31zM1329.14 13.228h-95.116v24.92h95.116Zm-95.116-19.525h95.116v-22.844h22.223V57.88h-139.568v-87.022h22.229zm-35.518 88.477h166.146v19.934h-71.858v46.528h-22.637v-46.528h-71.65z" style="stroke-width:5.17895" transform="translate(164.177 211.97)"/></svg>